<?xml version="1.0" encoding="UTF-8" standalone="no"?>
<!-- Created with Inkscape (http://www.inkscape.org/) -->

<svg
   xmlns:dc="http://purl.org/dc/elements/1.1/"
   xmlns:cc="http://creativecommons.org/ns#"
   xmlns:rdf="http://www.w3.org/1999/02/22-rdf-syntax-ns#"
   xmlns:svg="http://www.w3.org/2000/svg"
   xmlns="http://www.w3.org/2000/svg"
   xmlns:sodipodi="http://sodipodi.sourceforge.net/DTD/sodipodi-0.dtd"
   xmlns:inkscape="http://www.inkscape.org/namespaces/inkscape"
   sodipodi:docname="cards_bw.svg"
   inkscape:version="0.91 r13725"
   version="1.1"
   id="svg2"
   viewBox="0 0 315 180"
   height="2in"
   width="3.5in">
  <defs
     id="defs4">
    <filter
       style="color-interpolation-filters:sRGB;"
       inkscape:label="Greyscale"
       id="filter4738">
      <feColorMatrix
         values="0 0 0 0 0 0 0 0 0 0 0 0 0 0 0 -0.21 -0.59 -0.11 0.9 0 "
         id="feColorMatrix4740" />
    </filter>
  </defs>
  <sodipodi:namedview
     inkscape:guide-bbox="true"
     showguides="true"
     units="in"
     inkscape:window-maximized="1"
     inkscape:window-y="0"
     inkscape:window-x="0"
     inkscape:window-height="712"
     inkscape:window-width="1366"
     fit-margin-bottom="0"
     fit-margin-right="0"
     fit-margin-left="0"
     fit-margin-top="0"
     showgrid="false"
     inkscape:current-layer="layer1"
     inkscape:document-units="px"
     inkscape:cy="46.589798"
     inkscape:cx="198.04959"
     inkscape:zoom="1.5804687"
     inkscape:pageshadow="2"
     inkscape:pageopacity="0.0"
     borderopacity="1.0"
     bordercolor="#666666"
     pagecolor="#ffffff"
     id="base" />
  <metadata
     id="metadata7">
    <rdf:RDF>
      <cc:Work
         rdf:about="">
        <dc:format>image/svg+xml</dc:format>
        <dc:type
           rdf:resource="http://purl.org/dc/dcmitype/StillImage" />
        <dc:title></dc:title>
      </cc:Work>
    </rdf:RDF>
  </metadata>
  <g
     inkscape:label="Layer 1"
     inkscape:groupmode="layer"
     id="layer1"
     transform="translate(0.33861336,11.705024)">
    <g
       transform="matrix(0.36085255,0,0,0.36085255,4.5052773,-6.5491458)"
       id="g4443"
       style="filter:url(#filter4738)">
      <path
         style="fill:#f8fbf7"
         d="m -0.33861336,84.294974 0,-84.00000003 75.00000036,0 75.000003,0 0,84.00000003 0,83.999996 -75.000003,0 -75.00000036,0 0,-83.999996 z"
         id="path4403"
         inkscape:connector-curvature="0" />
      <path
         style="fill:#fcfa4e"
         d="M 52.607402,163.4362 C 33.391583,157.93169 17.725514,146.52984 9.8195526,132.29497 3.6345456,121.15872 1.6613866,113.5999 1.6613866,101.04249 c 0,-17.19329 4.1504848,-27.131392 16.2595404,-38.932547 3.395644,-3.309303 7.748119,-6.416286 10.415313,-7.434896 4.134894,-1.57913 5.374383,-1.620128 12.703552,-0.420188 15.949891,2.611334 20.8846,2.325218 36.182014,-2.097843 4.982765,-1.440707 9.09042,-0.537512 9.95581,2.189091 1.183518,3.728935 -2.676428,12.104723 -8.118358,17.616214 -6.142941,6.221461 -11.595265,8.177801 -25.199769,9.041887 -8.921653,0.566655 -9.361095,0.705279 -10.75,3.391126 -1.894165,3.66291 -1.876303,16.701346 0.03271,23.875006 0.801389,3.01145 2.726071,7.28645 4.277071,9.5 8.863212,12.64934 30.935062,15.26338 40.382407,4.78262 5.754651,-6.38413 11.677177,-19.0779 13.974813,-29.952248 3.55102,-16.806403 1.51087,-45.862708 -3.59222,-51.161389 -1.095887,-1.13789 -3.290805,-0.837191 -13.664244,1.87197 C 63.021758,48.925848 59.611203,49.516464 52.161387,48.914935 28.170625,46.977822 24.317776,37.741155 40.505912,20.97257 50.373173,10.751505 59.014294,6.3685548 76.363182,2.7850435 85.395835,0.91929787 96.414659,1.986048 108.922,5.9371148 c 7.21775,2.2800843 8.82746,3.2648155 14.24486,8.7142122 8.84516,8.897396 11.80359,13.795839 15.78952,26.143647 6.51224,20.173949 7.75651,26.217808 8.33786,40.5 0.51847,12.737331 0.37665,14.177928 -2.51034,25.499996 -4.4102,17.29573 -12.11564,32.50532 -20.95246,41.35755 -11.21683,11.2364 -19.11631,15.28 -33.50256,17.14935 -13.874393,1.80284 -27.219039,1.14283 -37.721478,-1.86567 z"
         id="path4401"
         inkscape:connector-curvature="0" />
      <path
         style="fill:#f0ef28"
         d="M 52.607402,163.4362 C 33.391583,157.93169 17.725514,146.52984 9.8195526,132.29497 3.6345456,121.15872 1.6613866,113.5999 1.6613866,101.04249 c 0,-17.19329 4.1504848,-27.131392 16.2595404,-38.932547 3.395644,-3.309303 7.748119,-6.416286 10.415313,-7.434896 4.134894,-1.57913 5.374383,-1.620128 12.703552,-0.420188 15.949891,2.611334 20.8846,2.325218 36.182014,-2.097843 4.982765,-1.440707 9.09042,-0.537512 9.95581,2.189091 1.183518,3.728935 -2.676428,12.104723 -8.118358,17.616214 -6.142941,6.221461 -11.595265,8.177801 -25.199769,9.041887 -9.093243,0.577554 -9.336844,0.658384 -10.859776,3.603409 -1.214236,2.348074 -1.447812,5.127414 -1.058903,12.59998 0.274436,5.273053 1.016849,11.263503 1.649806,13.312113 1.751089,5.66752 6.967943,11.73204 13.014117,15.12874 4.883682,2.74361 6.323107,3.0594 14,3.07135 13.585129,0.0211 17.472234,-3.16852 26.62554,-21.84821 7.824687,-15.968303 10.067507,-30.608909 7.441527,-48.576616 -2.03937,-13.95393 -5.242942,-20.651935 -9.418247,-19.69161 -5.907619,1.358761 -17.016117,4.235777 -24.454033,6.333408 -8.996303,2.537125 -16.687853,2.949888 -25.251643,1.355115 -7.974504,-1.485034 -10.640873,-2.853578 -11.748132,-6.029865 -1.702853,-4.884806 0.386286,-5.466099 10.52044,-2.927266 15.329011,3.840263 26.055344,1.80028 42.37226,-8.058548 l 7.046138,-4.25734 2.321808,2.181225 c 2.238262,2.102738 2.479758,2.124746 6.711409,0.611609 6.19056,-2.213599 7.88959,-2.289584 7.88959,-0.352842 0,0.640137 1.97924,5.027637 4.39832,9.75 5.61497,10.961191 8.44818,20.363024 9.69848,32.183861 0.54696,5.171239 1.23441,11.658119 1.52765,14.415287 0.39306,3.695701 -0.0131,6.398942 -1.54564,10.287021 -2.11951,5.37725 -2.84825,15.606371 -1.18504,16.634281 1.47332,0.91057 7.67966,-2.16287 9.35441,-4.63238 2.32624,-3.43019 4.15611,-1.26015 2.62968,3.11855 -1.23883,3.55374 -0.25419,5.03245 3.37214,5.06418 1.71369,0.015 2.19227,1.50689 1.76923,5.51531 -0.11609,1.1 -2.50855,6.48272 -5.31658,11.96161 -5.32899,10.39764 -13.58353,19.96602 -22.27605,25.82163 -8.8461,5.95906 -21.594498,8.6789 -40.426603,8.6249 -8.384789,-0.024 -12.424637,-0.58143 -20.053985,-2.76691 z M 63.724288,17.044974 c -1.314527,-3.389315 0.951174,-6.25 4.950085,-6.25 4.419358,0 5.919561,2.427809 3.645143,5.899009 -2.258152,3.446376 -7.314616,3.652859 -8.595228,0.350991 z"
         id="path4399"
         inkscape:connector-curvature="0" />
      <path
         style="fill:#4e9dfa"
         d="M 52.607402,163.4362 C 33.391583,157.93169 17.725514,146.52984 9.8195526,132.29497 3.6345456,121.15872 1.6613866,113.5999 1.6613866,101.04249 c 0,-17.19329 4.1504848,-27.131392 16.2595404,-38.932547 3.395644,-3.309303 7.748119,-6.416286 10.415313,-7.434896 4.134894,-1.57913 5.374383,-1.620128 12.703552,-0.420188 15.949891,2.611334 20.8846,2.325218 36.182014,-2.097843 4.982765,-1.440707 9.09042,-0.537512 9.95581,2.189091 1.183518,3.728935 -2.676428,12.104723 -8.118358,17.616214 -6.142941,6.221461 -11.595265,8.177801 -25.199769,9.041887 -9.093243,0.577554 -9.336844,0.658384 -10.859776,3.603409 -1.214236,2.348074 -1.447812,5.127414 -1.058903,12.59998 0.274436,5.273053 1.016849,11.263503 1.649806,13.312113 1.751089,5.66752 6.967943,11.73204 13.014117,15.12874 4.883682,2.74361 6.323107,3.0594 14,3.07135 13.544769,0.0211 17.59001,-3.27206 26.311445,-21.41949 2.884869,-6.00279 5.695212,-10.773738 6.245212,-10.602117 1.00684,0.314173 0.98509,1.341171 -0.15677,7.401457 -0.67898,3.60357 1.15273,8.19532 3.26921,8.19532 0.70097,0 2.07195,-1.35 3.04663,-3 2.18453,-3.6981 5.07035,-3.92626 5.93795,-0.46945 0.49612,1.9767 1.07353,2.3914 2.63821,1.89479 1.1017,-0.34967 3.07062,-0.0644 4.37539,0.63386 1.83793,0.98363 2.94795,1.00733 4.92789,0.10521 4.00367,-1.8242 6.28156,-1.45189 6.64194,1.08559 0.21686,1.52696 1.12292,2.36113 2.81955,2.59582 6.01096,0.83148 5.81881,2.87876 -1.62243,17.28637 -5.02645,9.73212 -13.53639,19.48267 -21.95097,25.15105 -8.8461,5.95906 -21.594498,8.6789 -40.426603,8.6249 -8.384789,-0.024 -12.424637,-0.58143 -20.053985,-2.76691 z M 65.861387,17.094974 c -0.66,-0.66 -1.2,-1.769167 -1.2,-2.464816 0,-1.656317 3.760876,-3.640922 5.578141,-2.943572 2.069009,0.793953 1.740456,4.367512 -0.5124,5.573204 -2.410601,1.290115 -2.410819,1.290106 -3.865741,-0.164816 z"
         id="path4397"
         inkscape:connector-curvature="0" />
      <path
         style="fill:#2c89f1"
         d="m 53.48866,163.34961 c -5.32,-1.55924 -11.17,-3.958 -13,-5.33059 -1.83,-1.37258 -5.159437,-3.41517 -7.398748,-4.53908 -11.594895,-5.81946 -21.737287,-18.2513 -27.2678206,-33.423 -2.2860958,-6.27136 -2.6481219,-8.83069 -2.6539528,-18.76197 -0.00564,-9.602659 0.3833502,-12.572404 2.3577069,-17.999996 2.7768199,-7.633598 6.5073815,-13 9.0372095,-13 2.639606,0 8.098332,2.058172 8.098332,3.053416 0,0.471771 -1.049233,2.403896 -2.331628,4.293612 -1.282395,1.889715 -3.577221,7.197199 -5.099614,11.794409 -2.406334,7.266474 -2.678733,9.270916 -2.08487,15.341469 0.787777,8.05276 5.637375,19.07515 10.939437,24.86366 3.11637,3.40228 3.452186,3.52669 6.457438,2.39234 2.483129,-0.93728 3.543836,-0.92891 4.894675,0.0386 5.302721,3.79803 6.280269,2.63064 2.476338,-2.95725 -5.074515,-7.45436 -6.252187,-12.68456 -6.248038,-27.74842 0.0033,-11.943393 0.251136,-13.977659 2.065592,-16.953883 1.573904,-2.58165 1.908607,-4.289089 1.414302,-7.214856 -0.60121,-3.558527 -0.409097,-3.978992 2.684408,-5.875188 2.863159,-1.755004 4.337562,-1.952899 10.479185,-1.406526 5.81099,0.516959 8.520069,0.218845 14.490271,-1.594548 6.355902,-1.930546 8.179298,-3.056905 13.563657,-8.378618 3.421335,-3.381511 6.800713,-6.148217 7.509729,-6.148217 4.173418,0 -0.288223,12.530268 -6.440867,18.088813 -5.729925,5.176643 -9.830356,6.538009 -22.138935,7.350253 -9.021532,0.595331 -11.147523,1.046727 -12.290247,2.609495 -5.408622,7.396732 -3.464351,27.459005 3.607147,37.220925 1.632232,2.25323 5.124168,5.36437 7.759857,6.91365 4.400818,2.58682 5.608799,2.81534 14.792163,2.79823 11.485495,-0.0214 14.289621,-1.08111 19.754423,-7.4655 1.900338,-2.22012 5.658004,-8.74625 8.350368,-14.50252 2.692369,-5.75626 5.345212,-10.315668 5.895212,-10.13201 1.00682,0.336198 0.98514,1.362783 -0.15677,7.42334 -0.67898,3.60357 1.15273,8.19532 3.26921,8.19532 0.70097,0 2.07195,-1.35 3.04663,-3 2.18453,-3.6981 5.07035,-3.92626 5.93795,-0.46945 0.49612,1.9767 1.07353,2.3914 2.63821,1.89479 1.1017,-0.34967 3.07062,-0.0644 4.37539,0.63386 1.83793,0.98363 2.94795,1.00733 4.92789,0.10521 4.00367,-1.8242 6.28156,-1.45189 6.64194,1.08559 0.22628,1.59325 1.10089,2.3403 2.99637,2.55936 4.69738,0.54288 4.93298,2.09483 1.54897,10.20315 -8.03714,19.25753 -22.88363,33.75908 -38.725793,37.82604 -6.599491,1.69421 -20.359679,3.16943 -28.973766,3.10626 -5.189639,-0.0381 -10.529229,-0.93534 -17.198961,-2.89017 z M 65.861387,17.094974 c -0.66,-0.66 -1.2,-1.769167 -1.2,-2.464816 0,-1.656317 3.760876,-3.640922 5.578141,-2.943572 2.069009,0.793953 1.740456,4.367512 -0.5124,5.573204 -2.410601,1.290115 -2.410819,1.290106 -3.865741,-0.164816 z"
         id="path4395"
         inkscape:connector-curvature="0" />
      <path
         style="fill:#1d76df"
         d="m 53.48866,163.34961 c -5.32,-1.55924 -11.17,-3.958 -13,-5.33059 -1.83,-1.37258 -5.343506,-3.50907 -7.807791,-4.74775 C 23.290173,148.551 10.454964,132.38852 6.2837907,120.03126 3.3470225,111.33098 2.3047462,102.05894 3.4280865,94.627075 5.3820148,81.700144 11.187143,70.408287 15.105857,71.912039 c 2.150445,0.825203 1.945051,3.618022 -0.494135,6.718944 -4.9028944,6.23302 -9.0071616,26.191127 -6.0076844,29.213987 0.5184581,0.5225 1.392903,2.75 1.9432104,4.95 0.550307,2.2 1.440055,5.73774 1.977217,7.86164 0.537162,2.1239 2.065953,5.0489 3.397312,6.5 1.33136,1.4511 2.990833,4.08594 3.687719,5.8552 1.645689,4.17811 4.034477,6.31135 4.093518,3.6556 0.03309,-1.48865 0.699242,-1.13578 3.25,1.72158 1.764605,1.97671 4.366262,3.87781 5.781459,4.22465 2.405372,0.58952 2.54357,0.42952 2.120241,-2.45481 -0.765229,-5.21384 2.769445,-5.6877 16.019362,-2.14757 5.69798,1.52239 9.471417,1.19963 8.291676,-0.70923 -0.342319,-0.55388 -1.742328,-1.00706 -3.111131,-1.00706 -1.412471,0 -3.558965,-1.1548 -4.963526,-2.67035 -1.361137,-1.46869 -4.275849,-3.4767 -6.477138,-4.46225 -3.368821,-1.50826 -4.510449,-2.86632 -7.212355,-8.57965 -3.053816,-6.45746 -3.210747,-7.37166 -3.225113,-18.78775 -0.01342,-10.66556 0.235105,-12.423364 2.234898,-15.807156 2.567128,-4.343763 2.752659,-5.915093 1.025041,-8.681449 -0.932583,-1.493303 -0.946783,-2.239649 -0.05949,-3.126941 1.294644,-1.294644 3.03417,-1.331338 15.095121,-0.318415 9.795143,0.822632 19.529101,-1.298165 24.270778,-5.288023 4.597252,-3.868333 3.66591,-0.185931 -1.024774,4.051821 -4.739482,4.281837 -9.502661,5.700381 -21.953275,6.538004 -8.774012,0.590278 -9.533918,0.816487 -11.469118,3.41413 -3.958361,5.313358 -3.161381,23.525479 1.433739,32.762979 3.122412,6.27693 9.912549,11.60154 16.553868,12.98101 6.975894,1.44896 18.003817,0.73608 22.202729,-1.43527 4.831576,-2.4985 9.566351,-8.93021 14.780173,-20.07734 2.692368,-5.75626 5.345211,-10.315668 5.895211,-10.13201 1.00682,0.336198 0.98514,1.362783 -0.15677,7.42334 -0.67898,3.60357 1.15273,8.19532 3.26921,8.19532 0.70097,0 2.07195,-1.35 3.04663,-3 2.18453,-3.6981 5.07035,-3.92626 5.93795,-0.46945 0.49612,1.9767 1.07353,2.3914 2.63821,1.89479 1.1017,-0.34967 3.07062,-0.0644 4.37539,0.63386 1.83793,0.98363 2.94795,1.00733 4.92789,0.10521 4.00367,-1.8242 6.28156,-1.45189 6.64194,1.08559 0.22628,1.59325 1.10089,2.3403 2.99637,2.55936 4.69738,0.54288 4.93298,2.09483 1.54897,10.20315 -8.03714,19.25753 -22.88363,33.75908 -38.725793,37.82604 -6.599491,1.69421 -20.359679,3.16943 -28.973766,3.10626 -5.189639,-0.0381 -10.529229,-0.93534 -17.198961,-2.89017 z M 82.661387,58.353991 c 0,-1.132459 0.45,-2.059017 1,-2.059017 0.55,0 1,0.648442 1,1.440983 0,0.792541 -0.45,1.719098 -1,2.059017 -0.55,0.339919 -1,-0.308524 -1,-1.440983 z m -16.8,-41.259017 c -0.66,-0.66 -1.2,-1.769167 -1.2,-2.464816 0,-1.656317 3.760876,-3.640922 5.578141,-2.943572 2.069009,0.793953 1.740456,4.367512 -0.5124,5.573204 -2.410601,1.290115 -2.410819,1.290106 -3.865741,-0.164816 z"
         id="path4393"
         inkscape:connector-curvature="0" />
      <path
         style="fill:#1ae742"
         d="m 53.535583,163.36307 c -14.112022,-4.13651 -26.817017,-14.0681 -17.996641,-14.0681 1.582656,0 3.437756,-0.675 4.122445,-1.5 0.91378,-1.10104 3.340124,-1.5 9.122445,-1.5 6.85189,0 7.877555,-0.22908 7.877555,-1.75945 0,-0.9677 0.9,-2.32152 2,-3.00848 3.1795,-1.98563 2.50242,-4.99531 -1.5,-6.66762 -7.588968,-3.17088 -2.791279,-5.68514 11.359028,-5.95278 12.175796,-0.2303 14.986951,-1.27725 20.395395,-7.5958 1.900338,-2.22012 5.658004,-8.74625 8.350368,-14.50252 2.692369,-5.75626 5.345212,-10.315668 5.895212,-10.13201 1.00682,0.336198 0.98514,1.362783 -0.15677,7.42334 -0.67898,3.60357 1.15273,8.19532 3.26921,8.19532 0.70097,0 2.07195,-1.35 3.04663,-3 2.18453,-3.6981 5.07035,-3.92626 5.93795,-0.46945 0.49612,1.9767 1.07353,2.3914 2.63821,1.89479 1.1017,-0.34967 3.07062,-0.0644 4.37539,0.63386 1.83793,0.98363 2.94795,1.00733 4.92789,0.10521 4.00367,-1.8242 6.28156,-1.45189 6.64194,1.08559 0.22628,1.59325 1.10089,2.3403 2.99637,2.55936 4.69738,0.54288 4.93298,2.09483 1.54897,10.20315 -8.03714,19.25753 -22.88363,33.75908 -38.725793,37.82604 -6.599491,1.69421 -20.359679,3.16943 -28.973766,3.10626 -5.181167,-0.038 -10.525497,-0.93434 -17.152038,-2.87671 z M 65.861387,17.094974 c -0.66,-0.66 -1.2,-1.769167 -1.2,-2.464816 0,-1.656317 3.760876,-3.640922 5.578141,-2.943572 2.069009,0.793953 1.740456,4.367512 -0.5124,5.573204 -2.410601,1.290115 -2.410819,1.290106 -3.865741,-0.164816 z"
         id="path4391"
         inkscape:connector-curvature="0" />
      <path
         style="fill:#13d739"
         d="m 65.661387,164.60794 c -14.030145,-2.32711 -25.8239,-6.53027 -31.25,-11.13716 -2.672907,-2.26935 -2.158125,-4.17581 1.127555,-4.17581 1.582656,0 3.437756,-0.675 4.122445,-1.5 0.91378,-1.10104 3.340124,-1.5 9.122445,-1.5 6.85189,0 7.877555,-0.22908 7.877555,-1.75945 0,-0.9677 0.9,-2.32152 2,-3.00848 3.209103,-2.00412 2.500379,-4.99616 -1.588075,-6.70442 -7.211016,-3.01296 -0.728561,-6.9156 7.311688,-4.40187 4.703682,1.47058 4.773226,1.55329 4.568699,5.43376 -0.114229,2.16725 -0.262668,4.39046 -0.329865,4.94046 -0.0672,0.55 0.262335,3.025 0.732292,5.5 l 0.854467,4.5 7.475397,0.32536 c 4.111468,0.17895 9.950397,-0.20703 12.975397,-0.85774 5.529139,-1.18936 15.835853,-6.20952 21.597533,-10.51965 4.23855,-3.17072 11.18798,-10.56614 13.49727,-14.36346 1.04837,-1.7239 3.0648,-3.57489 4.48097,-4.11332 1.41617,-0.53842 3.2481,-1.65221 4.07097,-2.47507 2.12341,-2.12342 4.35326,-1.85253 4.35326,0.52884 0,2.83847 -6.41769,15.28284 -11.71459,22.71544 -5.86458,8.22917 -17.24527,16.59787 -26.18247,19.25307 -5.397689,1.60363 -27.795195,4.33929 -31.602943,3.86003 -0.55,-0.0692 -2.125,-0.31246 -3.5,-0.54053 z m 0.2,-147.512966 c -0.66,-0.66 -1.2,-1.769167 -1.2,-2.464816 0,-1.656317 3.760876,-3.640922 5.578141,-2.943572 2.069009,0.793953 1.740456,4.367512 -0.5124,5.573204 -2.410601,1.290115 -2.410819,1.290106 -3.865741,-0.164816 z"
         id="path4389"
         inkscape:connector-curvature="0" />
    </g>
    <flowRoot
       xml:space="preserve"
       id="flowRoot4453"
       style="font-style:normal;font-weight:normal;font-size:40px;line-height:125%;font-family:Caladea;letter-spacing:0px;word-spacing:0px;fill:#000000;fill-opacity:1;stroke:none;stroke-width:1px;stroke-linecap:butt;stroke-linejoin:miter;stroke-opacity:1;-inkscape-font-specification:Caladea;font-stretch:normal;font-variant:normal;"
       transform="translate(-0.33861336,-11.705024)"><flowRegion
         id="flowRegion4455"><rect
           id="rect4457"
           width="60.846836"
           height="40.266289"
           x="100.21832"
           y="30.567329"
           style="-inkscape-font-specification:Caladea;font-family:Caladea;font-weight:normal;font-style:normal;font-stretch:normal;font-variant:normal;" /></flowRegion><flowPara
         id="flowPara4459">Michele</flowPara></flowRoot>    <text
       xml:space="preserve"
       style="font-style:normal;font-variant:normal;font-weight:normal;font-stretch:normal;font-size:40px;line-height:125%;font-family:Caladea;-inkscape-font-specification:Caladea;letter-spacing:0px;word-spacing:0px;fill:#000000;fill-opacity:1;stroke:none;stroke-width:1px;stroke-linecap:butt;stroke-linejoin:miter;stroke-opacity:1;"
       x="74.825119"
       y="21.546722"
       id="text4461"
       sodipodi:linespacing="125%"><tspan
         sodipodi:role="line"
         id="tspan4463"
         x="74.825119"
         y="21.546722"
         style="font-style:normal;font-variant:normal;font-weight:normal;font-stretch:normal;font-size:20px;font-family:Caladea;-inkscape-font-specification:Caladea;">Michele Pratusevich</tspan><tspan
         sodipodi:role="line"
         x="74.825119"
         y="49.671722"
         style="font-style:italic;font-variant:normal;font-weight:normal;font-stretch:normal;font-size:12.5px;font-family:Caladea;-inkscape-font-specification:'Caladea Italic'"
         id="tspan4485">Learnable LLC</tspan></text>
    <text
       xml:space="preserve"
       style="font-style:normal;font-variant:normal;font-weight:normal;font-stretch:normal;font-size:40px;line-height:125%;font-family:Caladea;-inkscape-font-specification:Caladea;letter-spacing:0px;word-spacing:0px;fill:#000000;fill-opacity:1;stroke:none;stroke-width:1px;stroke-linecap:butt;stroke-linejoin:miter;stroke-opacity:1;"
       x="15.992544"
       y="100.92085"
       id="text4469"
       sodipodi:linespacing="125%"><tspan
         sodipodi:role="line"
         id="tspan4471"
         x="15.992544"
         y="100.92085"
         style="font-size:16.25px;-inkscape-font-specification:Caladea;font-family:Caladea;font-weight:normal;font-style:normal;font-stretch:normal;font-variant:normal;">http://practicepython.org</tspan></text>
    <text
       xml:space="preserve"
       style="font-style:normal;font-variant:normal;font-weight:normal;font-stretch:normal;font-size:40px;line-height:125%;font-family:Caladea;-inkscape-font-specification:Caladea;letter-spacing:0px;word-spacing:0px;fill:#000000;fill-opacity:1;stroke:none;stroke-width:1px;stroke-linecap:butt;stroke-linejoin:miter;stroke-opacity:1"
       x="19.992544"
       y="125.21246"
       id="text4473"
       sodipodi:linespacing="125%"><tspan
         sodipodi:role="line"
         x="19.992544"
         y="125.21246"
         id="tspan4477"
         style="font-style:normal;font-variant:normal;font-weight:normal;font-stretch:normal;font-size:16.25px;font-family:Caladea;-inkscape-font-specification:Caladea">mail@practicepython.org</tspan></text>
    <text
       xml:space="preserve"
       style="font-style:normal;font-variant:normal;font-weight:normal;font-stretch:normal;font-size:40px;line-height:125%;font-family:Caladea;-inkscape-font-specification:Caladea;letter-spacing:0px;word-spacing:0px;fill:#000000;fill-opacity:1;stroke:none;stroke-width:1px;stroke-linecap:butt;stroke-linejoin:miter;stroke-opacity:1"
       x="49.992546"
       y="149.50406"
       id="text4481"
       sodipodi:linespacing="125%"><tspan
         sodipodi:role="line"
         id="tspan4483"
         x="49.992546"
         y="149.50406"
         style="font-style:normal;font-variant:normal;font-weight:normal;font-stretch:normal;font-size:16.25px;font-family:Caladea;-inkscape-font-specification:Caladea">@practice_python</tspan></text>
  </g>
</svg>
