<?xml version="1.0" encoding="UTF-8" standalone="no"?>
<!-- Created with Inkscape (http://www.inkscape.org/) -->

<svg
   xmlns:dc="http://purl.org/dc/elements/1.1/"
   xmlns:cc="http://creativecommons.org/ns#"
   xmlns:rdf="http://www.w3.org/1999/02/22-rdf-syntax-ns#"
   xmlns:svg="http://www.w3.org/2000/svg"
   xmlns="http://www.w3.org/2000/svg"
   xmlns:sodipodi="http://sodipodi.sourceforge.net/DTD/sodipodi-0.dtd"
   xmlns:inkscape="http://www.inkscape.org/namespaces/inkscape"
   id="svg2"
   version="1.1"
   inkscape:version="0.91 r13725"
   width="323.42755"
   height="394.83365"
   viewBox="0 0 323.42755 394.83365"
   sodipodi:docname="chili-liz.svg">
  <metadata
     id="metadata8">
    <rdf:RDF>
      <cc:Work
         rdf:about="">
        <dc:format>image/svg+xml</dc:format>
        <dc:type
           rdf:resource="http://purl.org/dc/dcmitype/StillImage" />
        <dc:title></dc:title>
      </cc:Work>
    </rdf:RDF>
  </metadata>
  <defs
     id="defs6" />
  <sodipodi:namedview
     pagecolor="#ffffff"
     bordercolor="#666666"
     borderopacity="1"
     objecttolerance="10"
     gridtolerance="10"
     guidetolerance="10"
     inkscape:pageopacity="0"
     inkscape:pageshadow="2"
     inkscape:window-width="1228"
     inkscape:window-height="627"
     id="namedview4"
     showgrid="false"
     fit-margin-top="0"
     fit-margin-left="0"
     fit-margin-right="0"
     fit-margin-bottom="0"
     inkscape:zoom="0.4609375"
     inkscape:cx="179.12907"
     inkscape:cy="94.445554"
     inkscape:window-x="0"
     inkscape:window-y="0"
     inkscape:window-maximized="0"
     inkscape:current-layer="svg2" />
  <path
     style="fill:#000000"
     d="m 0.3482535,360.35516 c -0.7081461,-3.9902 -0.6161843,-4.17228 2.9857109,-5.9116 2.044004,-0.98704 8.6851776,-2.79319 14.7581756,-4.01366 40.592365,-8.15776 56.002415,-13.50003 80.728436,-27.98648 13.366934,-7.83139 18.225154,-12.36321 28.924964,-26.98167 10.87659,-14.85996 12.69736,-19.26504 17.94785,-43.42215 2.65103,-12.1972 4.95392,-26.14694 5.11753,-30.99939 0.16366,-4.85246 0.4606,-13.85263 0.65999,-20.00038 0.19938,-6.14774 0.61973,-14.26719 0.93407,-18.04323 0.31435,-3.77604 0.74457,-14.99687 0.95506,-24.93521 1.17616,-55.41755 1.17448,-55.40349 8.13718,-67.932668 3.30411,-5.945669 4.92777,-7.812241 10.14283,-11.660242 5.41681,-3.996878 7.52067,-4.939224 16.48969,-7.385949 10.72352,-2.925352 25.54246,-3.953098 34.74579,-2.409731 2.74306,0.459994 5.26187,0.641536 5.59735,0.403417 2.17392,-1.543008 -2.57408,-42.712802 -6.10836,-52.965403 -1.56003,-4.525519 -2.90668,-9.1385064 -2.99256,-10.2510804 -0.22294,-2.888406 2.57469,-4.274563 8.83999,-4.380017 2.99721,-0.05045 7.20611,-0.48722602 9.35314,-0.97062202 7.5515,-1.70017598 11.73738,0.86762102 12.32423,7.56020982 0.25162,2.8695166 -1.02759,16.9993946 -2.67047,29.4973986 -0.95544,7.268375 -1.33096,18.591729 -0.87277,26.317194 l 0.30497,5.142361 10.49937,0.290346 c 15.00444,0.414921 18.04571,1.062705 30.4984,6.496099 16.87332,7.362231 24.34724,12.103852 27.93706,17.723904 6.00591,9.402553 9.18481,30.299253 7.3002,47.988343 -1.97594,18.54648 -10.21859,52.06646 -18.4449,75.00903 -1.63064,4.54775 -5.39401,15.72909 -8.36305,24.84743 -6.57886,20.20459 -7.72092,22.84612 -17.46971,40.4068 -27.53049,49.59113 -33.87565,57.25368 -66.64292,80.47957 -21.64426,15.34174 -32.05551,21.02747 -48.76576,26.63168 -11.65508,3.90883 -19.64477,5.47114 -29.36931,5.7429 -46.426926,1.29749 -82.164385,-3.99568 -109.159766,-16.16793 -8.291454,-3.73862 -22.8033769,-12.21107 -23.4562442,-13.6944 -0.074564,-0.1693 -0.4642915,-2.16051 -0.8661563,-4.42487 z m 140.6360265,7.84737 c 6.16345,-0.60832 15.64177,-3.51417 32.47425,-9.95592 7.38465,-2.82609 12.40756,-5.61475 27.27124,-15.14063 10.02067,-6.42209 20.64486,-13.73099 23.60933,-16.242 2.96447,-2.51103 8.73002,-7.27798 12.81235,-10.59323 18.0796,-14.68243 21.80851,-19.68987 31.99626,-42.96683 7.419,-16.95093 12.66138,-34.41343 15.41258,-51.33954 1.12472,-6.91969 3.33079,-17.37477 4.90234,-23.23349 1.57155,-5.85872 3.28216,-16.2958 3.80134,-23.1935 2.01031,-26.70866 0.30308,-27.41948 -4.17411,-1.73792 -3.43787,19.71999 -6.97427,32.83262 -12.07215,44.76241 -2.01291,4.71049 -5.36962,12.99337 -7.45937,18.40639 -4.99826,12.94689 -12.41212,29.04472 -16.50573,35.83912 -3.10711,5.15706 -7.88177,10.54912 -25.3659,28.64583 -14.33603,14.83831 -16.1598,16.15936 -58.37539,42.28413 -43.82131,27.11845 -42.35195,25.84941 -28.32704,24.46518 z M 238.57874,69.286589 c 1.86805,-0.170804 3.42613,-0.502373 3.46243,-0.736825 0.0363,-0.234456 0.28015,-6.169768 0.54198,-13.189579 0.26182,-7.019812 0.8609,-15.678983 1.33133,-19.242599 2.67923,-20.296108 3.16849,-29.3913724 1.70433,-31.6835894 -0.42282,-0.661953 -5.72397,-0.713214 -11.91194,-0.115198 l -11.15005,1.07756 1.30578,4.1420636 c 4.43002,14.0523948 5.44584,19.3075688 7.38797,38.2198298 1.18514,11.540743 2.55461,21.175704 3.04326,21.41102 0.48865,0.235317 2.41687,0.288108 4.28491,0.117322 z"
     id="path4138"
     inkscape:connector-curvature="0" />
</svg>
